<svg xmlns="http://www.w3.org/2000/svg" viewBox="0 0 198.438 198.438"><g fill="none" stroke-width="30.427" stroke-linecap="round" stroke-linejoin="round"><path d="M130.306 99.226a31.094 31.094 0 0 1-19.195 28.727 31.094 31.094 0 0 1-33.886-6.74 31.094 31.094 0 0 1-6.74-33.886 31.094 31.094 0 0 1 28.727-19.195" paint-order="markers fill stroke"/><path d="M183.222 99.225a84.01 84.01 0 0 1-51.86 77.615 84.01 84.01 0 0 1-91.554-18.21 84.01 84.01 0 0 1-18.21-91.554 84.01 84.01 0 0 1 77.614-51.861" paint-order="markers fill stroke"/></g></svg>
