<svg xmlns="http://www.w3.org/2000/svg" viewBox="0 0 304.271 304.271"><g fill="none" stroke="#fff" stroke-width="30.427" stroke-linecap="round" stroke-linejoin="round"><path d="M236.14 152.141a84.01 84.01 0 0 1-51.861 77.616 84.01 84.01 0 0 1-91.554-18.212 84.01 84.01 0 0 1-18.21-91.553 84.01 84.01 0 0 1 77.615-51.86" paint-order="markers fill stroke"/><path d="M289.057 152.14a136.927 136.927 0 0 1-84.527 126.504 136.927 136.927 0 0 1-149.221-29.682A136.927 136.927 0 0 1 25.627 99.741 136.927 136.927 0 0 1 152.13 15.214" paint-order="markers fill stroke"/></g></svg>
