<?xml version="1.0" encoding="UTF-8" standalone="no"?>
<svg
   xmlns:dc="http://purl.org/dc/elements/1.1/"
   xmlns:cc="http://creativecommons.org/ns#"
   xmlns:rdf="http://www.w3.org/1999/02/22-rdf-syntax-ns#"
   xmlns:svg="http://www.w3.org/2000/svg"
   xmlns="http://www.w3.org/2000/svg"
   xmlns:sodipodi="http://sodipodi.sourceforge.net/DTD/sodipodi-0.dtd"
   xmlns:inkscape="http://www.inkscape.org/namespaces/inkscape"
   viewBox="0 0 304.271 304.271"
   version="1.1"
   id="svg10"
   sodipodi:docname="circles-3.svg"
   inkscape:version="0.92.2 (5c3e80d, 2017-08-06)">
  <metadata
     id="metadata16">
    <rdf:RDF>
      <cc:Work
         rdf:about="">
        <dc:format>image/svg+xml</dc:format>
        <dc:type
           rdf:resource="http://purl.org/dc/dcmitype/StillImage" />
      </cc:Work>
    </rdf:RDF>
  </metadata>
  <defs
     id="defs14" />
  <sodipodi:namedview
     pagecolor="#ffffff"
     bordercolor="#666666"
     borderopacity="1"
     objecttolerance="10"
     gridtolerance="10"
     guidetolerance="10"
     inkscape:pageopacity="0"
     inkscape:pageshadow="2"
     inkscape:window-width="1366"
     inkscape:window-height="706"
     id="namedview12"
     showgrid="false"
     inkscape:zoom="0.77562437"
     inkscape:cx="152.1355"
     inkscape:cy="152.1355"
     inkscape:window-x="-8"
     inkscape:window-y="-8"
     inkscape:window-maximized="1"
     inkscape:current-layer="svg10" />
  <g
     fill="none"
     stroke="#000"
     stroke-width="30.427"
     stroke-linecap="round"
     stroke-linejoin="round"
     id="g8"
     style="stroke:#ffffff;stroke-opacity:1">
    <path
       d="M183.223 152.142a31.094 31.094 0 0 1-19.195 28.727 31.094 31.094 0 0 1-33.886-6.74 31.094 31.094 0 0 1-6.74-33.886 31.094 31.094 0 0 1 28.727-19.195"
       paint-order="markers fill stroke"
       id="path2"
       style="stroke:#ffffff;stroke-opacity:1" />
    <path
       d="M236.14 152.141a84.01 84.01 0 0 1-51.861 77.616 84.01 84.01 0 0 1-91.554-18.212 84.01 84.01 0 0 1-18.21-91.553 84.01 84.01 0 0 1 77.615-51.86"
       paint-order="markers fill stroke"
       id="path4"
       style="stroke:#ffffff;stroke-opacity:1" />
    <path
       d="M289.057 152.14a136.927 136.927 0 0 1-84.527 126.504 136.927 136.927 0 0 1-149.221-29.682A136.927 136.927 0 0 1 25.627 99.741 136.927 136.927 0 0 1 152.13 15.214"
       paint-order="markers fill stroke"
       id="path6"
       style="stroke:#ffffff;stroke-opacity:1" />
  </g>
</svg>
